<svg width="200" height="200" viewBox="0 0 200 200" fill="none" xmlns="http://www.w3.org/2000/svg">
<path d="M100 12.6982C73.5513 12.6982 51.0269 29.5004 42.5186 53.0131C22.9618 57.3369 8.33333 74.7775 8.33333 95.6347C8.33333 114.111 19.8125 129.906 36.028 136.277L38.8889 130.555V95.6347H161.111V130.555L163.972 136.277C180.188 129.906 191.667 114.111 191.667 95.6347C191.667 74.7775 177.038 57.3369 157.481 53.0131C148.973 29.5004 126.449 12.6982 100 12.6982Z" fill="#55BC8A"/>
<mask id="mask0_160_4392" style="mask-type:alpha" maskUnits="userSpaceOnUse" x="8" y="12" width="184" height="125">
<path d="M100 12.6982C73.5513 12.6982 51.0269 29.5004 42.5186 53.0131C22.9618 57.3369 8.33333 74.7775 8.33333 95.6347C8.33333 114.111 19.8125 129.906 36.028 136.277L38.8889 130.555V95.6347H161.111V130.555L163.972 136.277C180.188 129.906 191.667 114.111 191.667 95.6347C191.667 74.7775 177.038 57.3369 157.481 53.0131C148.973 29.5004 126.449 12.6982 100 12.6982Z" fill="#55BC8A"/>
</mask>
<g mask="url(#mask0_160_4392)">
<circle cx="148.553" cy="95.3681" r="44.124" fill="#77C9A1"/>
<circle cx="99.7809" cy="74.2676" r="61.5704" fill="#55BC8A"/>
<circle cx="51.5447" cy="95.6116" r="43.7176" fill="#77C9A1"/>
</g>
<path d="M71.627 136.044V108.729H58.5317V136.044C58.5317 136.414 58.4378 136.777 58.2587 137.101L49.7307 152.506C49.0385 152.423 48.3338 152.38 47.619 152.38C37.976 152.38 30.1587 160.197 30.1587 169.84C30.1587 179.483 37.976 187.3 47.619 187.3C57.2621 187.3 65.0794 179.483 65.0794 169.84C65.0794 165.675 63.621 161.851 61.187 158.85L69.7156 143.443C70.9693 141.178 71.627 138.632 71.627 136.044Z" fill="#324558"/>
<path d="M128.373 136.044V108.729H141.468V136.044C141.468 136.414 141.562 136.777 141.741 137.101L150.269 152.506C150.962 152.423 151.666 152.38 152.381 152.38C162.024 152.38 169.841 160.197 169.841 169.84C169.841 179.483 162.024 187.3 152.381 187.3C142.738 187.3 134.921 179.483 134.921 169.84C134.921 165.675 136.379 161.851 138.813 158.85L130.284 143.443C129.031 141.178 128.373 138.632 128.373 136.044Z" fill="#324558"/>
<path d="M100 187.3C109.643 187.3 117.46 179.483 117.46 169.84C117.46 162.512 112.946 156.239 106.548 153.649V108.729H93.4524V153.649C87.0535 156.239 82.5397 162.512 82.5397 169.84C82.5397 179.483 90.3569 187.3 100 187.3Z" fill="#324558"/>
</svg>
